# xmcd
#
# Track frame offsets: 
#        150
#        11807
#        22539
#        34885
#        48826
#        59650
#        70302
#        83297
#        100147
#        114280
#        126242
#
# Disc length: 1923 seconds
#
# Revision: 3
# Processed by: cddbd v1.5.2PL0 Copyright (c) Steve Scherf et al.
# Submitted via: ExactAudioCopyFreeDBPlugin 1.0
#
DISCID=8107810b
DTITLE=Linda Ronstadt - Hand Sown...Home Grown
DYEAR=2004
DGENRE=Pop
TTITLE0=Baby You've Been On My Mind
TTITLE1=Silver Threads and Golden Needles
TTITLE2=Bet No One Ever Hurt This Bad
TTITLE3=A Number and A Name
TTITLE4=The Only Mama That'll Walk The Line
TTITLE5=The Long Way Around
TTITLE6=Break My Mind
TTITLE7=I'll Be Your Baby Tonight
TTITLE8=It's About Time
TTITLE9=We need A whole Lot More of Jesus ( And A Lot Less Rock and Roll
TTITLE9=)
TTITLE10=The Dolphins
EXTD=
EXTT0=
EXTT1=
EXTT2=
EXTT3=
EXTT4=
EXTT5=
EXTT6=
EXTT7=
EXTT8=
EXTT9=
EXTT10=
PLAYORDER=
